<?xml version="1.0" encoding="utf-8"?><svg viewBox="0 0 24 24" xmlns="http://www.w3.org/2000/svg" xmlns:xlink="http://www.w3.org/1999/xlink"><style>:root>svg{display:none}:root>svg:target{display:block}</style><svg fill="none" viewBox="0 0 24 24" id="language_FILL0_wght400_GRAD0_opsz48_(2)_1" xmlns="http://www.w3.org/2000/svg"><path d="M12 22c-1.4 0-2.708-.262-3.925-.788A10.099 10.099 0 014.9 19.075a9.891 9.891 0 01-2.125-3.188A10.027 10.027 0 012 11.95c0-1.4.258-2.704.775-3.912A9.964 9.964 0 014.9 4.874a9.76 9.76 0 013.175-2.112C9.292 2.254 10.6 2 12 2s2.708.254 3.925.763A9.76 9.76 0 0119.1 4.875c.9.9 1.608 1.954 2.125 3.162.517 1.209.775 2.513.775 3.913s-.258 2.713-.775 3.938a9.892 9.892 0 01-2.125 3.187c-.9.9-1.958 1.613-3.175 2.137C14.708 21.738 13.4 22 12 22zm0-1.45a8.322 8.322 0 001.463-2.063c.391-.774.712-1.695.962-2.762H9.6c.233 1 .546 1.9.938 2.7.391.8.879 1.508 1.462 2.125zm-2.125-.3A11.952 11.952 0 018.8 18.2c-.3-.733-.55-1.558-.75-2.475H4.3c.633 1.183 1.367 2.112 2.2 2.787.833.675 1.958 1.255 3.375 1.738zm4.275-.025c1.2-.383 2.28-.958 3.237-1.725a8.955 8.955 0 002.313-2.775h-3.725c-.217.9-.47 1.717-.762 2.45a11.348 11.348 0 01-1.063 2.05zm-10.35-6h3.975c-.05-.45-.08-.854-.088-1.213a45.72 45.72 0 01-.012-1.062c0-.417.008-.787.025-1.112.017-.325.05-.688.1-1.088h-4c-.117.4-.196.758-.237 1.075A8.761 8.761 0 003.5 11.95c0 .433.02.82.063 1.163.041.341.12.712.237 1.112zm5.525 0H14.7c.067-.517.108-.938.125-1.262a19.748 19.748 0 000-1.975c-.017-.309-.058-.721-.125-1.238H9.325c-.067.517-.108.93-.125 1.238a19.782 19.782 0 000 1.975c.017.325.058.745.125 1.262zm6.875 0h4c.117-.4.196-.77.238-1.112a9.68 9.68 0 00.062-1.163c0-.433-.02-.808-.063-1.125A7.289 7.289 0 0020.2 9.75h-3.975c.05.583.083 1.03.1 1.338.017.308.025.595.025.862 0 .367-.013.713-.038 1.038-.024.325-.062.737-.112 1.237zm-.25-5.975h3.75a8.1 8.1 0 00-2.262-2.875 8.62 8.62 0 00-3.313-1.625c.417.617.77 1.283 1.063 2 .291.717.545 1.55.762 2.5zm-6.35 0h4.85a9.75 9.75 0 00-.925-2.563A10.227 10.227 0 0012 3.5c-.533.45-.983 1.042-1.35 1.775C10.283 6.008 9.933 7 9.6 8.25zm-5.3 0h3.775c.183-.9.417-1.704.7-2.412A11.87 11.87 0 019.85 3.775c-1.25.317-2.342.85-3.275 1.6-.933.75-1.692 1.708-2.275 2.875z" fill="#fff"/></svg><svg fill="none" viewBox="0 0 24 24" id="mail_FILL0_wght400_GRAD0_opsz48_(8)_1" xmlns="http://www.w3.org/2000/svg"><path d="M3.5 20c-.4 0-.75-.15-1.05-.45-.3-.3-.45-.65-.45-1.05v-13c0-.4.15-.75.45-1.05.3-.3.65-.45 1.05-.45h17c.4 0 .75.15 1.05.45.3.3.45.65.45 1.05v13c0 .4-.15.75-.45 1.05-.3.3-.65.45-1.05.45h-17zm8.5-7.55L3.5 6.875V18.5h17V6.875L12 12.45zm0-1.5l8.4-5.45H3.625L12 10.95zM3.5 6.875V5.5v13V6.875z" fill="#0C91FC"/></svg><svg fill="none" viewBox="0 0 24 24" id="phone_in_talk_FILL0_wght400_GRAD0_opsz48_(4)_1" xmlns="http://www.w3.org/2000/svg"><path d="M19.4 11.825c-.083-2.017-.825-3.725-2.225-5.125-1.4-1.4-3.108-2.142-5.125-2.225v-1.5c1.2.033 2.33.288 3.387.763a9.276 9.276 0 012.788 1.912c.8.8 1.438 1.73 1.912 2.788a8.784 8.784 0 01.763 3.387h-1.5zm-4.225 0a3.343 3.343 0 00-1-2.112 3.424 3.424 0 00-2.125-.988v-1.5c1.25.083 2.313.558 3.188 1.425s1.354 1.925 1.437 3.175h-1.5zm4.7 9.175c-2.033 0-4.054-.5-6.063-1.5-2.008-1-3.812-2.3-5.412-3.9s-2.9-3.404-3.9-5.412C3.5 8.179 3 6.158 3 4.125c0-.321.107-.59.321-.803A1.09 1.09 0 014.125 3h3.5c.227 0 .43.08.608.238.178.158.292.37.342.637l.675 3.15c.033.233.03.446-.012.638a.963.963 0 01-.263.487l-2.5 2.525c.933 1.55 1.98 2.9 3.138 4.05a17.338 17.338 0 003.937 2.925l2.375-2.45c.167-.183.358-.312.575-.387.217-.075.433-.088.65-.038l2.975.65c.255.056.465.183.629.38.164.197.246.428.246.695v3.375c0 .322-.107.59-.321.804a1.09 1.09 0 01-.804.321zM5.725 9.3L7.75 7.25 7.175 4.5H4.5c0 .65.1 1.363.3 2.138.2.775.508 1.662.925 2.662zm9.225 9.075c.683.317 1.425.575 2.225.775.8.2 1.575.317 2.325.35v-2.675l-2.575-.525-1.975 2.075z" fill="#0C91FC"/></svg><svg fill="none" viewBox="0 0 24 24" id="schedule_FILL0_wght400_GRAD0_opsz48_1" xmlns="http://www.w3.org/2000/svg"><path d="M15.675 16.825L16.8 15.7l-3.975-4V6.675h-1.5V12.3l4.35 4.525zM12 22a9.676 9.676 0 01-3.875-.788 10.144 10.144 0 01-3.188-2.15 10.142 10.142 0 01-2.15-3.187A9.676 9.676 0 012 12c0-1.367.263-2.658.788-3.875a10.143 10.143 0 012.15-3.188 10.143 10.143 0 013.187-2.15A9.676 9.676 0 0112 2c1.367 0 2.658.263 3.875.788a10.142 10.142 0 013.188 2.15c.908.908 1.625 1.97 2.15 3.187A9.676 9.676 0 0122 12a9.676 9.676 0 01-.788 3.875 10.143 10.143 0 01-2.15 3.188 10.143 10.143 0 01-3.187 2.15A9.676 9.676 0 0112 22zm0-1.5c2.333 0 4.333-.833 6-2.5 1.667-1.667 2.5-3.667 2.5-6s-.833-4.333-2.5-6c-1.667-1.667-3.667-2.5-6-2.5S7.667 4.333 6 6c-1.667 1.667-2.5 3.667-2.5 6s.833 4.333 2.5 6c1.667 1.667 3.667 2.5 6 2.5z" fill="#0C91FC"/></svg></svg>